<?xml version="1.0" encoding="iso-8859-1"?>
<!-- Generator: Adobe Illustrator 19.0.0, SVG Export Plug-In . SVG Version: 6.00 Build 0)  -->
<svg version="1.1" id="Layer_1" xmlns="http://www.w3.org/2000/svg" xmlns:xlink="http://www.w3.org/1999/xlink" x="0px" y="0px"
	 viewBox="0 0 512 512" style="enable-background:new 0 0 512 512;" xml:space="preserve">
<path style="fill:#999999;" d="M256,0C114.616,0,0,114.616,0,256s114.616,256,256,256s256-114.616,256-256S397.384,0,256,0z"/>
<g>
	<path style="fill:#FFFFFF;" d="M256,466.432c-116.024,0-210.424-94.4-210.424-210.432S139.976,45.568,256,45.568
		c116.032,0,210.432,94.4,210.432,210.432S372.032,466.432,256,466.432z M256,61.568C148.792,61.568,61.576,148.792,61.576,256
		S148.792,450.432,256,450.432S450.432,363.216,450.432,256S363.208,61.568,256,61.568z"/>
	<polygon style="fill:#FFFFFF;" points="155.912,267.8 256,366.416 356.088,267.8 313.136,267.8 313.136,161.584 198.864,161.584 
		198.864,267.8 	"/>
</g>
<g>
</g>
<g>
</g>
<g>
</g>
<g>
</g>
<g>
</g>
<g>
</g>
<g>
</g>
<g>
</g>
<g>
</g>
<g>
</g>
<g>
</g>
<g>
</g>
<g>
</g>
<g>
</g>
<g>
</g>
</svg>
