<svg class="svg-icon" style="width: 1em; height: 1em;vertical-align: middle;fill: currentColor;overflow: hidden;" viewBox="0 0 1024 1024" version="1.1" xmlns="http://www.w3.org/2000/svg"><path d="M831.904012 960.007999v-95.988001a159.980002 159.980002 0 0 0-159.980003-159.980003h-319.960005a159.980002 159.980002 0 0 0-159.980002 159.980003v95.988001a63.992001 63.992001 0 1 1-127.984002 0v-95.988001a288.731909 288.731909 0 0 1 287.964004-287.964005h319.960005a288.731909 288.731909 0 0 1 287.964005 287.964005v95.988001a63.992001 63.992001 0 1 1-127.984002 0z m-575.928009-703.912011a255.968004 255.968004 0 1 1 255.968004 255.968004 255.968004 255.968004 0 0 1-255.968004-255.968004z m127.984002 0a127.984002 127.984002 0 1 0 127.984002-127.984002 127.984002 127.984002 0 0 0-127.984002 127.984002z" fill="#8F9BB2" /></svg>