<svg xmlns="http://www.w3.org/2000/svg" width="28" height="28" viewBox="0 0 28 28"><defs><clipPath id="3vnua"><path fill="#fff" d="M14 1c7.18 0 13 5.82 13 13s-5.82 13-13 13S1 21.18 1 14 6.82 1 14 1z"/></clipPath></defs><g><g><g><path fill="#fff" d="M14 1c7.18 0 13 5.82 13 13s-5.82 13-13 13S1 21.18 1 14 6.82 1 14 1z"/><path fill="none" stroke="#e5e5e5" stroke-linecap="round" stroke-linejoin="round" stroke-miterlimit="20" stroke-width="2" d="M14 1c7.18 0 13 5.82 13 13s-5.82 13-13 13S1 21.18 1 14 6.82 1 14 1z" clip-path="url(&quot;#3vnua&quot;)"/></g><g><path fill="#fc4242" d="M17.813 9.25l.843.844-8.486 8.485-.843-.843z"/></g><g><path fill="#fc4242" d="M18.665 17.746l-.843.844-8.486-8.486.844-.843z"/></g></g></g></svg>